<?xml version="1.0" encoding="UTF-8"?>
<svg id="Camada_2" data-name="Camada 2" xmlns="http://www.w3.org/2000/svg" viewBox="0 0 195.25 60.35">
  <defs>
    <style>
      .cls-1 {
        fill: #00ffd0;
      }

      .cls-2 {
        fill: #fff;
      }
    </style>
  </defs>
  <g id="Camada_1-2" data-name="Camada 1">
    <g>
      <g>
        <path class="cls-2" d="m50.31,10.89v4.57l.46.47,1.14,1.17-1.31,1.35-.29.31v34.96h6.01V10.89h-6.01Z"/>
        <path class="cls-2" d="m89.86,10.89l-12.58,28.29-12.59-28.29h-5.62v42.84h5.86v-28.95l10.26,23h4.18l10.26-23.58v26.79l5.86-15.74V10.89h-5.62Z"/>
        <path class="cls-2" d="m97.34,38.62v5.71h22.54v-5.71h-22.54Zm28.08,11.45l-4.17-11.32-10.27-27.85h-5.12l-15.8,42.84h6.49l3.23-9.4,1.96-5.71,6.68-19.45,6.68,19.45,1.96,5.71,3.23,9.4h6.49l-1.35-3.67Z"/>
        <path class="cls-2" d="m136.14,30.66v5.75h8.7v1.85c0,3.16-.81,5.63-2.42,7.4-1.61,1.77-3.75,2.65-6.42,2.65s-4.89-.84-6.54-2.52c-1.65-1.68-2.48-3.92-2.48-6.7v-12.64c0-3.04.81-5.49,2.42-7.35,1.61-1.85,3.75-2.78,6.42-2.78,1.81,0,3.5.59,5.1,1.77,1.59,1.18,2.66,2.87,3.21,5.1h6.51c-.49-2.56-1.44-4.78-2.83-6.69-1.4-1.9-3.12-3.39-5.17-4.45s-4.33-1.59-6.82-1.59c-3.03,0-5.66.66-7.9,1.99-2.24,1.33-3.98,3.19-5.23,5.58-1.25,2.39-1.87,5.21-1.87,8.43v12.64c0,3.02.63,5.67,1.89,7.94.63,1.14,1.4,2.16,2.29,3.04.88.87,1.88,1.61,3.02,2.24,2.28,1.25,4.94,1.87,7.98,1.87s5.66-.66,7.9-1.99c2.24-1.33,3.98-3.19,5.23-5.6,1.25-2.41,1.87-5.22,1.87-8.44v-7.48h-14.85Z"/>
        <path class="cls-2" d="m153.73,11.33v42.85h6.01V11.33h-6.01Z"/>
        <path class="cls-2" d="m181.78,32.29l-1.18-1.92-.97-1.59-1.01-1.69-9.34-15.76h-6.75l12.96,21,.95,1.55.92,1.48,1.29,2.19,9.84,16.64h6.75l-13.46-21.89Zm6.07-20.96l-9.23,15.76-1.53,2.61-1.6,2.63-13.31,21.85h6.75l9.72-16.64,1.77-3.02,1.36-2.23,12.81-20.96h-6.75Z"/>
      </g>
      <path class="cls-1" d="m33.47,19.3l-1.03-1.06-1.48-1.53-1.53-1.62L15.32,0H0v41.05h6.61l1.04,1.07,1.48,1.53,1.53,1.61,14.13,15.09h15.31V19.3h-6.62ZM9.11,4.12l15.52,15.91.08.08-3.64,3.78-11.96,12.43V4.12Zm21.87,52.11l-15.52-15.91-.08-.08,3.64-3.78,11.96-12.43v32.2Z"/>
    </g>
  </g>
</svg>